<svg width="48" height="48" viewBox="0 0 48 48" fill="none" xmlns="http://www.w3.org/2000/svg">
<path d="M24 48C37.2548 48 48 37.2548 48 24C48 10.7452 37.2548 0 24 0C10.7452 0 0 10.7452 0 24C0 37.2548 10.7452 48 24 48Z" fill="#DDDDDD"/>
<path fill-rule="evenodd" clip-rule="evenodd" d="M24 29C26.3704 29 27.7408 29.2483 30.1111 29.7448C33.8399 30.2655 37.1884 33.8488 38.8658 37.3799C35.2049 41.4445 29.9009 44 24 44C18.0914 44 12.7812 41.4378 9.11993 37.3638C10.742 33.9471 13.9862 30.5193 17.8889 29.7448L18.9192 29.5333C20.7046 29.1778 21.9943 29 24 29ZM24 8C28.4183 8 32 11.5817 32 16L32.0006 17.8484C32.447 20.1674 33.8506 21.497 35 22.927C31.8476 24.8689 28.066 26 24 26C19.9341 26 16.1525 24.8689 13 22.927L13.3515 22.4997L13.8915 21.8556C14.7927 20.7688 15.6663 19.585 16.0004 17.8435L16 16C16 11.5817 19.5817 8 24 8Z" fill="white"/>
</svg>
