<svg width="32" height="32" viewBox="0 0 32 32" fill="none" xmlns="http://www.w3.org/2000/svg">
<g clip-path="url(#clip0_48_4)">
<path d="M16 30C12.26 30 8.74499 28.544 6.10099 25.899C1.77899 21.578 0.752993 15.025 3.54699 9.595C3.79999 9.104 4.40199 8.911 4.89399 9.163C5.38499 9.415 5.57899 10.018 5.32599 10.51C2.93099 15.165 3.80999 20.781 7.51499 24.485C9.78099 26.752 12.794 28 16 28C19.205 28 22.219 26.752 24.485 24.485C26.751 22.218 28 19.205 28 16C28 12.794 26.752 9.781 24.485 7.515C22.218 5.249 19.206 4 16 4C12.794 4 9.78099 5.249 7.51499 7.515C7.12399 7.906 6.49199 7.906 6.10099 7.515C5.70999 7.124 5.70999 6.492 6.10099 6.101C8.74499 3.457 12.26 2 16 2C19.74 2 23.256 3.457 25.899 6.101C28.544 8.745 30 12.26 30 16C30 19.739 28.544 23.255 25.899 25.899C23.256 28.544 19.74 30 16 30Z" fill="#00AFF5"/>
<path d="M16 22C15.448 22 15 21.553 15 21V11C15 10.448 15.448 10 16 10C16.552 10 17 10.448 17 11V21C17 21.553 16.552 22 16 22Z" fill="#00AFF5"/>
<path d="M21 17H11C10.448 17 10 16.552 10 16C10 15.448 10.448 15 11 15H21C21.553 15 22 15.448 22 16C22 16.552 21.553 17 21 17Z" fill="#00AFF5"/>
</g>
<defs>
<clipPath id="clip0_48_4">
<rect width="32" height="32" fill="white"/>
</clipPath>
</defs>
</svg>
