<svg width="39" height="39" viewBox="0 0 39 39" fill="none" xmlns="http://www.w3.org/2000/svg">
<path d="M13.4777 22.75L10.6063 34.2357C10.3033 35.4478 11.803 36.2765 12.668 35.3751L32.1605 15.0626C32.904 14.2879 32.3549 13 31.2812 13H24.0346L26.7499 4.85415C27.013 4.06497 26.4256 3.25 25.5937 3.25H14.2187C13.6745 3.25 13.1963 3.61072 13.0468 4.13394L8.17184 21.1965C7.9494 21.975 8.53397 22.75 9.34369 22.75H13.4777ZM21.1876 13.8333C20.9245 14.6225 21.5117 15.4375 22.3437 15.4375H28.4225L14.0826 30.3807L16.221 21.8268C16.4133 21.0576 15.8315 20.3125 15.0386 20.3125H10.9594L15.138 5.6875H23.9028L21.1876 13.8333Z" fill="#6F8B90"/>
</svg>
