<svg width="31" height="32" viewBox="0 0 31 32" fill="none" xmlns="http://www.w3.org/2000/svg">
<path d="M8.26666 15.9999C8.26666 20.1162 11.5113 23.4666 15.5 23.4666C19.4876 23.4666 22.7333 20.1162 22.7333 15.9999C22.7333 11.8837 19.4876 8.53326 15.5 8.53326C11.5113 8.53326 8.26666 11.8837 8.26666 15.9999ZM20.6667 15.9999C20.6667 18.9407 18.3489 21.3333 15.5 21.3333C12.6511 21.3333 10.3333 18.9407 10.3333 15.9999C10.3333 13.0591 12.6511 10.6666 15.5 10.6666C18.3489 10.6666 20.6667 13.0591 20.6667 15.9999Z" fill="#6F8B90"/>
<path d="M6.45834 16C6.45834 21.1454 10.5142 25.3334 15.5 25.3334C20.4845 25.3334 24.5417 21.1454 24.5417 16C24.5417 10.8547 20.4845 6.66669 15.5 6.66669C10.5142 6.66669 6.45834 10.8547 6.45834 16ZM21.9583 16C21.9583 19.676 19.0611 22.6667 15.5 22.6667C11.9389 22.6667 9.04167 19.676 9.04167 16C9.04167 12.324 11.9389 9.33335 15.5 9.33335C19.0611 9.33335 21.9583 12.324 21.9583 16Z" fill="#6F8B90"/>
</svg>
