<svg width="37" height="37" viewBox="0 0 37 37" fill="none" xmlns="http://www.w3.org/2000/svg">
<path fill-rule="evenodd" clip-rule="evenodd" d="M10.7917 9.25C10.7917 4.99281 14.2428 1.54167 18.5 1.54167C22.7572 1.54167 26.2083 4.99281 26.2083 9.25C26.2083 13.5072 22.7572 16.9583 18.5 16.9583C14.2428 16.9583 10.7917 13.5072 10.7917 9.25ZM18.5 4.625C15.9456 4.625 13.875 6.69569 13.875 9.25C13.875 11.8043 15.9456 13.875 18.5 13.875C21.0544 13.875 23.125 11.8043 23.125 9.25C23.125 6.69569 21.0544 4.625 18.5 4.625Z" fill="#6F8B90"/>
<path d="M6.26208 32.375C7.02073 26.2911 12.2106 21.5833 18.5 21.5833C19.1632 21.5833 19.813 21.6356 20.446 21.7358L21.9688 21.9769L22.451 18.9315L20.9283 18.6904C20.1363 18.5649 19.3253 18.5 18.5 18.5C9.98561 18.5 3.08333 25.4024 3.08333 33.9167V35.4583H21.8775V32.375H6.26208Z" fill="#6F8B90"/>
<path fill-rule="evenodd" clip-rule="evenodd" d="M29.2917 20.8748L30.4146 22.0688C31.2366 22.9428 32.2161 23.382 33.3385 23.382H35.4583V26.8218C35.4583 30.7738 33.1744 34.3416 29.7425 35.391L29.2917 35.5288L28.8409 35.391C25.409 34.3416 23.125 30.7738 23.125 26.8218L23.1252 23.382H25.2448C26.3674 23.382 27.3465 22.9428 28.1686 22.0688L29.2917 20.8748ZM26.2083 26.4009V26.8218C26.2083 29.4651 27.6003 31.5112 29.2917 32.2723C30.983 31.5112 32.375 29.4651 32.375 26.8218V26.4015C31.2397 26.2475 30.202 25.8208 29.2917 25.1682C28.3813 25.8208 27.3436 26.2469 26.2083 26.4009Z" fill="#6F8B90"/>
</svg>
