<svg width="32" height="32" viewBox="0 0 32 32" fill="none" xmlns="http://www.w3.org/2000/svg">
<g clip-path="url(#clip0_44_51)">
<path d="M22.4 7.04C27.3485 7.04 31.36 5.60731 31.36 3.84C31.36 2.07269 27.3485 0.639999 22.4 0.639999C17.4515 0.639999 13.44 2.07269 13.44 3.84C13.44 5.60731 17.4515 7.04 22.4 7.04Z" stroke="#6F8B90" stroke-width="2" stroke-miterlimit="10" stroke-linecap="round" stroke-linejoin="round"/>
<path d="M13.44 4.48C13.44 5.06368 13.44 7.73632 13.44 8.32C13.44 10.087 17.4502 11.52 22.4 11.52C27.3498 11.52 31.36 10.087 31.36 8.32C31.36 7.73632 31.36 5.06368 31.36 4.48" stroke="#6F8B90" stroke-width="2" stroke-miterlimit="10" stroke-linecap="round" stroke-linejoin="round"/>
<path d="M18.272 15.641C19.5072 15.8701 20.9114 16 22.4 16C27.3498 16 31.36 14.567 31.36 12.8C31.36 12.2163 31.36 9.54368 31.36 8.96" stroke="#6F8B90" stroke-width="2" stroke-miterlimit="10" stroke-linecap="round" stroke-linejoin="round"/>
<path d="M13.44 8.96C13.44 9.54368 13.44 11.6928 13.44 11.6928" stroke="#6F8B90" stroke-width="2" stroke-miterlimit="10" stroke-linecap="round" stroke-linejoin="round"/>
<path d="M18.576 20.1747C19.7357 20.3706 21.0317 20.48 22.4 20.48C27.3497 20.48 31.36 19.0477 31.36 17.28C31.36 16.6963 31.36 14.0237 31.36 13.44" stroke="#6F8B90" stroke-width="2" stroke-miterlimit="10" stroke-linecap="round" stroke-linejoin="round"/>
<path d="M18.5267 24.6464C19.6986 24.8474 21.0125 24.96 22.4 24.96C27.3498 24.96 31.36 23.5277 31.36 21.76C31.36 21.1763 31.36 18.5037 31.36 17.92" stroke="#6F8B90" stroke-width="2" stroke-miterlimit="10" stroke-linecap="round" stroke-linejoin="round"/>
<path d="M9.60001 17.92C14.5485 17.92 18.56 16.4873 18.56 14.72C18.56 12.9527 14.5485 11.52 9.60001 11.52C4.65154 11.52 0.640015 12.9527 0.640015 14.72C0.640015 16.4873 4.65154 17.92 9.60001 17.92Z" stroke="#6F8B90" stroke-width="2" stroke-miterlimit="10" stroke-linecap="round" stroke-linejoin="round"/>
<path d="M0.640015 15.36C0.640015 15.9437 0.640015 18.6163 0.640015 19.2C0.640015 20.9677 4.65025 22.4 9.60001 22.4C14.5498 22.4 18.56 20.9677 18.56 19.2C18.56 18.6163 18.56 15.9437 18.56 15.36" stroke="#6F8B90" stroke-width="2" stroke-miterlimit="10" stroke-linecap="round" stroke-linejoin="round"/>
<path d="M0.640015 19.84C0.640015 20.4237 0.640015 23.0963 0.640015 23.68C0.640015 25.4477 4.65025 26.88 9.60001 26.88C14.5498 26.88 18.56 25.4477 18.56 23.68C18.56 23.0963 18.56 20.4237 18.56 19.84" stroke="#6F8B90" stroke-width="2" stroke-miterlimit="10" stroke-linecap="round" stroke-linejoin="round"/>
<path d="M0.640015 24.32C0.640015 24.9037 0.640015 27.5763 0.640015 28.16C0.640015 29.9277 4.65025 31.36 9.60001 31.36C14.5498 31.36 18.56 29.9277 18.56 28.16C18.56 27.5763 18.56 24.9037 18.56 24.32" stroke="#6F8B90" stroke-width="2" stroke-miterlimit="10" stroke-linecap="round" stroke-linejoin="round"/>
</g>
<defs>
<clipPath id="clip0_44_51">
<rect width="32" height="32" fill="white"/>
</clipPath>
</defs>
</svg>
