<svg width="32" height="33" viewBox="0 0 32 33" fill="none" xmlns="http://www.w3.org/2000/svg">
<path d="M27.414 25.086L22.337 20.009C23.386 18.428 24 16.535 24 14.5C24 8.986 19.514 4.5 14 4.5C8.486 4.5 4 8.986 4 14.5C4 20.014 8.486 24.5 14 24.5C16.035 24.5 17.928 23.886 19.509 22.837L24.586 27.914C25.366 28.695 26.634 28.695 27.414 27.914C28.195 27.133 28.195 25.867 27.414 25.086ZM7 14.5C7 10.64 10.14 7.5 14 7.5C17.86 7.5 21 10.64 21 14.5C21 18.36 17.86 21.5 14 21.5C10.14 21.5 7 18.36 7 14.5Z" fill="#00AFF5"/>
</svg>
