<svg width="32" height="32" viewBox="0 0 32 32" fill="none" xmlns="http://www.w3.org/2000/svg">
<g clip-path="url(#clip0_92_625)">
<path d="M16.0001 30C12.2601 30 8.74511 28.544 6.10111 25.899C1.77911 21.578 0.753115 15.025 3.54711 9.595C3.80011 9.104 4.40211 8.911 4.89411 9.163C5.38511 9.415 5.57912 10.018 5.32612 10.51C2.93112 15.165 3.81011 20.781 7.51511 24.485C9.78111 26.752 12.7941 28 16.0001 28C19.2051 28 22.2191 26.752 24.4851 24.485C26.7511 22.218 28.0001 19.205 28.0001 16C28.0001 12.794 26.7521 9.781 24.4851 7.515C22.2181 5.249 19.2061 4 16.0001 4C12.7941 4 9.78111 5.249 7.51511 7.515C7.12411 7.906 6.49211 7.906 6.10111 7.515C5.71011 7.124 5.71011 6.492 6.10111 6.101C8.74511 3.457 12.2601 2 16.0001 2C19.7401 2 23.2561 3.457 25.8991 6.101C28.5441 8.745 30.0001 12.26 30.0001 16C30.0001 19.739 28.5441 23.255 25.8991 25.899C23.2561 28.544 19.7401 30 16.0001 30Z" fill="#00AFF5"/>
<path d="M16 22C15.448 22 15 21.553 15 21V11C15 10.448 15.448 10 16 10C16.552 10 17 10.448 17 11V21C17 21.553 16.552 22 16 22Z" fill="#00AFF5"/>
<path d="M21 17H11C10.448 17 10 16.552 10 16C10 15.448 10.448 15 11 15H21C21.553 15 22 15.448 22 16C22 16.552 21.553 17 21 17Z" fill="#00AFF5"/>
</g>
<defs>
<clipPath id="clip0_92_625">
<rect width="32" height="32" fill="white"/>
</clipPath>
</defs>
</svg>
