<svg width="25" height="25" viewBox="0 0 25 25" fill="none" xmlns="http://www.w3.org/2000/svg">
<path d="M6.51042 3.125C4.6407 3.125 3.125 4.6407 3.125 6.51042V18.4896C3.125 20.3593 4.6407 21.875 6.51042 21.875H18.4896C20.3593 21.875 21.875 20.3593 21.875 18.4896V6.51042C21.875 4.6407 20.3593 3.125 18.4896 3.125H6.51042ZM4.6875 8.85417H20.3125V18.4896C20.3125 19.4964 19.4964 20.3125 18.4896 20.3125H6.51042C5.50365 20.3125 4.6875 19.4964 4.6875 18.4896V8.85417ZM16.9271 15.1042C16.2079 15.1042 15.625 15.6871 15.625 16.4062C15.625 17.1254 16.2079 17.7083 16.9271 17.7083C17.6462 17.7083 18.2292 17.1254 18.2292 16.4062C18.2292 15.6871 17.6462 15.1042 16.9271 15.1042ZM12.5 15.1042C11.7808 15.1042 11.1979 15.6871 11.1979 16.4062C11.1979 17.1254 11.7808 17.7083 12.5 17.7083C13.2192 17.7083 13.8021 17.1254 13.8021 16.4062C13.8021 15.6871 13.2192 15.1042 12.5 15.1042ZM16.9271 10.9375C16.2079 10.9375 15.625 11.5204 15.625 12.2396C15.625 12.9587 16.2079 13.5417 16.9271 13.5417C17.6462 13.5417 18.2292 12.9587 18.2292 12.2396C18.2292 11.5204 17.6462 10.9375 16.9271 10.9375ZM12.5 10.9375C11.7808 10.9375 11.1979 11.5204 11.1979 12.2396C11.1979 12.9587 11.7808 13.5417 12.5 13.5417C13.2192 13.5417 13.8021 12.9587 13.8021 12.2396C13.8021 11.5204 13.2192 10.9375 12.5 10.9375ZM8.07292 10.9375C7.35379 10.9375 6.77083 11.5204 6.77083 12.2396C6.77083 12.9587 7.35379 13.5417 8.07292 13.5417C8.79204 13.5417 9.375 12.9587 9.375 12.2396C9.375 11.5204 8.79204 10.9375 8.07292 10.9375ZM6.51042 4.6875H18.4896C19.4964 4.6875 20.3125 5.50365 20.3125 6.51042V7.29167H4.6875V6.51042C4.6875 5.50365 5.50365 4.6875 6.51042 4.6875Z" fill="#6F8B90"/>
</svg>
