<svg width="31" height="33" viewBox="0 0 31 33" fill="none" xmlns="http://www.w3.org/2000/svg">
<path d="M8.2666 16.4999C8.2666 20.6162 11.5113 23.9666 15.4999 23.9666C19.4876 23.9666 22.7333 20.6162 22.7333 16.4999C22.7333 12.3837 19.4876 9.03326 15.4999 9.03326C11.5113 9.03326 8.2666 12.3837 8.2666 16.4999ZM20.6666 16.4999C20.6666 19.4407 18.3488 21.8333 15.4999 21.8333C12.651 21.8333 10.3333 19.4407 10.3333 16.4999C10.3333 13.5591 12.651 11.1666 15.4999 11.1666C18.3488 11.1666 20.6666 13.5591 20.6666 16.4999Z" fill="#6F8B90"/>
<path d="M6.45837 16.5C6.45837 21.6454 10.5142 25.8334 15.5 25.8334C20.4846 25.8334 24.5417 21.6454 24.5417 16.5C24.5417 11.3547 20.4846 7.16669 15.5 7.16669C10.5142 7.16669 6.45837 11.3547 6.45837 16.5ZM21.9584 16.5C21.9584 20.176 19.0612 23.1667 15.5 23.1667C11.9389 23.1667 9.04171 20.176 9.04171 16.5C9.04171 12.824 11.9389 9.83335 15.5 9.83335C19.0612 9.83335 21.9584 12.824 21.9584 16.5Z" fill="#6F8B90"/>
</svg>
